# xmcd
# 
# Track frame offsets:
#     150
#     14942
#     32563
#     56138
#     73169
#     92672
#     108385
#     127909
#     143316
#     158828
#     169738
#     188290
#     217736
#     266595
#     287439
# 
# Disc length: 4141
# 
# Revision: 1
# Processed by: cddbd v1.5.2PL0 Copyright (c) Steve Scherf et al.
# Submitted via: fre:ac v1.0.27
# 
DISCID=c8102b0f
DTITLE=Spiritual Beggars - Spiritual Beggars [Disc 2 - Rare and Unreleased]
DYEAR=1994
DGENRE=Stoner Rock
TTITLE0=Left Brain Ambassadors [1999 Demo Track]
TTITLE1=Save Your Soul [1999 Demo Track]
TTITLE2=Until The Morning [1999 Demo Track]
TTITLE3=Angel Of Betrayal [1999 Demo Track]
TTITLE4=Per Aspera Ad Astra [1999 Demo Track]
TTITLE5=Blessed [Instrumental Version - 1999 Demo Track]
TTITLE6=Let The Magic Talk [1999 Demo #2]
TTITLE7=The Goddess [1999 Demo #2]
TTITLE8=Mr White [Trouble Cover - 'Bastards Will Pay' Tribute]
TTITLE9=Broken Morning [1996 Demo]
TTITLE10=Monster Astronauts [1996 Demo]
TTITLE11=Sad Queen Boogie [1996 Demo]
TTITLE12=Mushroom Tea Girl (1996 Demo)
TTITLE13=Inside Charmer [1996 Demo]
TTITLE14=Trouble In My Head [Unreleased Instrumental Studio Track]
EXTD=2013 Savage Messiah Music/Century Media Rerelease
EXTT0=
EXTT1=
EXTT2=
EXTT3=
EXTT4=
EXTT5=
EXTT6=
EXTT7=
EXTT8=
EXTT9=
EXTT10=
EXTT11=
EXTT12=
EXTT13=
EXTT14=
PLAYORDER=
